# xmcd
#
# Track frame offsets:
# 150
# 16469
# 32298
# 48334
# 67353
# 95595
# 112085
# 122923
# 135756
# 146307
# 160488
# 171746
# 185850
# 197090
# 208358
#
# Disc length: 2893 seconds
#
#
# Revision: 1
# Processed by: cddbd v1.5.1PL0 Copyright (c) Steve Scherf et al.
# Submitted via: FreeRIP 2.90 
#
DISCID=e90b4b0f
DTITLE=Ray Charles - Raros Collection - Soh O Melhor De
DYEAR=2004
DGENRE=Blues
TTITLE0=Georgia On My Mind
TTITLE1=Cry
TTITLE2=Your Cheating Heart
TTITLE3=I Can´t Stop Loving You
TTITLE4=I Got A Woman
TTITLE5=What Am I Living For
TTITLE6=Sentimental Blues
TTITLE7=Baby Wont You Please Come Home
TTITLE8=Hey Now
TTITLE9=Blues Is My Middle Name
TTITLE10=She´s On The Ball
TTITLE11=Understanding
TTITLE12=I Don't Need No Doctor
TTITLE13=My Baby Don't Dig Me
TTITLE14=Hit The Road Jack
EXTD=
EXTT0=
EXTT1=
EXTT2=
EXTT3=
EXTT4=
EXTT5=
EXTT6=
EXTT7=
EXTT8=
EXTT9=
EXTT10=
EXTT11=
EXTT12=
EXTT13=
EXTT14=
PLAYORDER=
